# xmcd
#
# Track frame offsets:
# 150
# 17765
# 35309
# 55729
# 81627
# 98689
# 124379
# 146030
# 169412
# 190969
# 204669
# 223432
#
# Disc length: 3348 seconds
#
#
# Revision: 0
# Processed by: cddbd v1.5.1PL0 Copyright (c) Steve Scherf et al.
# Submitted via: FreeRIP 2.931 
#
DISCID=ba0d120c
DTITLE=Sean Costello - Sean Costello
DYEAR=2004
DGENRE=Blues
TTITLE0=no half-steppin'
TTITLE1=I'm a ram
TTITLE2=She changed my mind
TTITLE3=Hold on
TTITLE4=Simple twist of  fate
TTITLE5=Got to ride
TTITLE6=Take it easy
TTITLE7=Peace of mind
TTITLE8=Father
TTITLE9=All I can do
TTITLE10=Big road blues
TTITLE11=I've got a feeling
EXTD=
EXTT0=
EXTT1=
EXTT2=
EXTT3=
EXTT4=
EXTT5=
EXTT6=
EXTT7=
EXTT8=
EXTT9=
EXTT10=
EXTT11=
PLAYORDER=
